<svg width="64" height="64" viewBox="0 0 64 64" xmlns="http://www.w3.org/2000/svg">
  <defs>
    <linearGradient id="ghg" x1="20%" y1="0%" x2="80%" y2="100%">
      <stop offset="0%" stop-color="#a78bfa"/>
      <stop offset="100%" stop-color="#5b21b6"/>
    </linearGradient>
    <linearGradient id="ghg2" x1="0%" y1="0%" x2="100%" y2="100%">
      <stop offset="0%" stop-color="#ede9fe"/>
      <stop offset="100%" stop-color="#a78bfa"/>
    </linearGradient>
    <filter id="ghsh" x="-25%" y="-25%" width="150%" height="150%">
      <feDropShadow dx="0" dy="3" stdDeviation="4" flood-color="#5b21b6" flood-opacity="0.4"/>
    </filter>
  </defs>
  <g filter="url(#ghsh)">
    <!-- Ghost body -->
    <path d="M16 32 C16 18 23 8 32 8 C41 8 48 18 48 32 L48 56 L44 50 L40 56 L36 50 L32 56 L28 50 L24 56 L20 50 L16 56 Z" fill="url(#ghg)"/>
    <!-- Inner glow -->
    <path d="M20 32 C20 22 25 14 32 14 C39 14 44 22 44 32 L44 48 L41 44 L38 48 L35 44 L32 48 L29 44 L26 48 L23 44 L20 48 Z" fill="url(#ghg2)" opacity="0.3"/>
    <!-- Eyes -->
    <ellipse cx="25" cy="30" rx="5" ry="7" fill="#1e1b4b" opacity="0.85"/>
    <ellipse cx="39" cy="30" rx="5" ry="7" fill="#1e1b4b" opacity="0.85"/>
    <!-- Eye shine -->
    <circle cx="26" cy="27" r="2" fill="#fff" opacity="0.7"/>
    <circle cx="40" cy="27" r="2" fill="#fff" opacity="0.7"/>
    <!-- Mouth -->
    <path d="M28 42 C30 46 34 46 36 42" fill="none" stroke="#1e1b4b" stroke-width="2" stroke-linecap="round" opacity="0.5"/>
    <!-- Top highlight -->
    <ellipse cx="28" cy="16" rx="8" ry="5" fill="#fff" opacity="0.15" transform="rotate(-10, 28, 16)"/>
  </g>
</svg>
