<svg xmlns="http://www.w3.org/2000/svg" width="1200" height="675" viewBox="0 0 1200 675" role="img" aria-label="Community Build Competition Winne...">
  <defs>
    <linearGradient id="bg" x1="0" y1="0" x2="1" y2="1">
      <stop offset="0" stop-color="#312e81"/>
      <stop offset=".55" stop-color="#a855f7"/>
      <stop offset="1" stop-color="#f472b6"/>
    </linearGradient>
    <filter id="soft" x="-20%" y="-20%" width="140%" height="140%">
      <feDropShadow dx="0" dy="18" stdDeviation="18" flood-color="#000" flood-opacity=".22"/>
    </filter>
  </defs>
  <rect width="1200" height="675" fill="url(#bg)"/>
  <path d="M0 518 C170 458 278 594 455 530 C658 456 760 535 928 494 C1040 466 1120 398 1200 420 L1200 675 L0 675Z" fill="#ffffff" opacity=".16"/>
  <circle cx="930" cy="170" r="112" fill="#f472b6" opacity=".32"/><circle cx="820" cy="430" r="190" fill="#a855f7" opacity=".18"/>
  <g filter="url(#soft)">
    <rect x="78" y="88" width="1044" height="499" rx="34" fill="#ffffff" opacity=".13"/>
    <path d="M152 470 L274 302 L390 420 L500 240 L648 470Z" fill="#ffffff" opacity=".26"/>
    <circle cx="785" cy="236" r="72" fill="#ffffff" opacity=".28"/>
  </g>
  <text x="112" y="145" fill="#fff" font-family="Inter,Segoe UI,Arial,sans-serif" font-size="28" font-weight="800" letter-spacing="4">ANNOUNCEMENT</text>
  <text x="112" y="540" fill="#fff" font-family="Inter,Segoe UI,Arial,sans-serif" font-size="64" font-weight="900">Community Build Competition Winne...</text>
  <text x="112" y="596" fill="#fff" opacity=".82" font-family="Inter,Segoe UI,Arial,sans-serif" font-size="28">Pokopia Portal</text>
</svg>