<svg xmlns="http://www.w3.org/2000/svg" width="800" height="800" viewBox="0 0 800 800" role="img" aria-label="Frostbite">
  <defs>
    <radialGradient id="bg" cx=".4" cy=".28" r=".8">
      <stop offset="0" stop-color="#ecfeff"/>
      <stop offset=".52" stop-color="#67e8f9"/>
      <stop offset="1" stop-color="#164e63"/>
    </radialGradient>
    <filter id="shadow">
      <feDropShadow dx="0" dy="24" stdDeviation="24" flood-color="#000" flood-opacity=".25"/>
    </filter>
  </defs>
  <rect width="800" height="800" fill="url(#bg)"/>
  <circle cx="625" cy="155" r="120" fill="#fff" opacity=".18"/>
  <circle cx="180" cy="625" r="180" fill="#fff" opacity=".12"/>
  <g filter="url(#shadow)">
    <path d="M240 424 C240 290 320 205 405 205 C505 205 574 300 566 432 C560 548 492 628 398 628 C304 628 240 540 240 424Z" fill="#fff" opacity=".88"/>
    <path d="M296 250 L252 152 L360 206Z" fill="#fff" opacity=".88"/>
    <path d="M504 252 L562 152 L448 205Z" fill="#fff" opacity=".88"/>
    <circle cx="355" cy="386" r="24" fill="#164e63"/>
    <circle cx="455" cy="386" r="24" fill="#164e63"/>
    <path d="M356 478 C388 506 427 506 456 478" fill="none" stroke="#164e63" stroke-width="18" stroke-linecap="round"/>
    <path d="M258 524 C178 555 144 616 152 688" fill="none" stroke="#fff" stroke-width="32" stroke-linecap="round" opacity=".78"/>
    <path d="M548 522 C642 556 675 614 664 688" fill="none" stroke="#fff" stroke-width="32" stroke-linecap="round" opacity=".78"/>
  </g>
  <text x="48" y="74" fill="#fff" font-family="Inter,Segoe UI,Arial,sans-serif" font-size="34" font-weight="900">Frostbite</text>
  <text x="48" y="122" fill="#fff" opacity=".85" font-family="Inter,Segoe UI,Arial,sans-serif" font-size="24" font-weight="700">Ice/Ghost / rare / Assassin</text>
</svg>