<?xml version="1.0" encoding="UTF-8"?>
<svg width="800" height="450" xmlns="http://www.w3.org/2000/svg">
  <defs>
    <linearGradient id="bg" x1="0%" y1="0%" x2="100%" y2="100%">
      <stop offset="0%" style="stop-color:hsl(287,75%,50%);stop-opacity:1" />
      <stop offset="50%" style="stop-color:hsl(317,65%,40%);stop-opacity:1" />
      <stop offset="100%" style="stop-color:hsl(347,55%,35%);stop-opacity:1" />
    </linearGradient>
    <pattern id="dots" x="0" y="0" width="40" height="40" patternUnits="userSpaceOnUse">
      <circle cx="20" cy="20" r="2" fill="rgba(255,255,255,0.15)"/>
    </pattern>
    <pattern id="lines" x="0" y="0" width="20" height="20" patternUnits="userSpaceOnUse">
      <line x1="0" y1="0" x2="20" y2="20" stroke="rgba(255,255,255,0.08)" stroke-width="1"/>
    </pattern>
  </defs>

  <!-- Background -->
  <rect width="800" height="450" fill="url(#bg)"/>

  <!-- Patterns for texture -->
  <rect width="800" height="450" fill="url(#dots)"/>
  <rect width="800" height="450" fill="url(#lines)"/>

  <!-- Decorative shapes -->
  <circle cx="50" cy="50" r="100" fill="rgba(255,255,255,0.05)"/>
  <circle cx="750" cy="400" r="150" fill="rgba(255,255,255,0.05)"/>
  <circle cx="700" cy="50" r="80" fill="rgba(255,255,255,0.03)"/>

  <!-- Category icon -->
  <g transform="translate(0, 30)">
    <circle cx="200" cy="180" r="60" fill="rgba(255,255,255,0.2)"/><circle cx="200" cy="180" r="40" fill="rgba(255,255,255,0.3)"/><circle cx="200" cy="180" r="20" fill="rgba(255,255,255,0.4)"/>
  </g>

  <!-- Title text -->
  <text x="400" y="165" font-family="system-ui, -apple-system, BlinkMacSystemFont, sans-serif" font-size="32" font-weight="bold" fill="white" text-anchor="middle" dominant-baseline="middle" style="text-shadow: 0 2px 8px rgba(0,0,0,0.3)">
    Pokémon Pokopia Multiplayer
  </text>
  <text x="400" y="210" font-family="system-ui, -apple-system, BlinkMacSystemFont, sans-serif" font-size="28" font-weight="bold" fill="white" text-anchor="middle" dominant-baseline="middle" style="text-shadow: 0 2px 8px rgba(0,0,0,0.3)" opacity="0.9">
    Guide
  </text>
  

  <!-- Bottom decoration -->
  <rect x="300" y="290" width="200" height="3" rx="1.5" fill="rgba(255,255,255,0.4)"/>

  <!-- Pokopia badge -->
  <rect x="340" y="330" width="120" height="36" rx="18" fill="rgba(255,255,255,0.2)"/>
  <text x="400" y="353" font-family="system-ui, -apple-system, sans-serif" font-size="14" font-weight="600" fill="white" text-anchor="middle" dominant-baseline="middle" letter-spacing="1">
    POKOPIA GUIDE
  </text>

  <!-- Corner accents -->
  <path d="M0 0 L60 0 L0 60 Z" fill="rgba(255,255,255,0.1)"/>
  <path d="M800 450 L740 450 L800 390 Z" fill="rgba(255,255,255,0.1)"/>
</svg>