<svg xmlns="http://www.w3.org/2000/svg" width="1200" height="675" viewBox="0 0 1200 675" role="img" aria-label="Shadow Marsh Complete Guide">
  <defs>
    <linearGradient id="bg" x1="0" y1="0" x2="1" y2="1">
      <stop offset="0" stop-color="#064e3b"/>
      <stop offset=".55" stop-color="#14b8a6"/>
      <stop offset="1" stop-color="#ccfbf1"/>
    </linearGradient>
    <filter id="soft" x="-20%" y="-20%" width="140%" height="140%">
      <feDropShadow dx="0" dy="18" stdDeviation="18" flood-color="#000" flood-opacity=".22"/>
    </filter>
  </defs>
  <rect width="1200" height="675" fill="url(#bg)"/>
  <path d="M0 518 C170 458 278 594 455 530 C658 456 760 535 928 494 C1040 466 1120 398 1200 420 L1200 675 L0 675Z" fill="#ffffff" opacity=".16"/>
  <path d="M770 90 C880 150 850 280 980 340 C1090 392 1050 510 930 540 C760 582 705 450 560 470 C402 492 340 615 190 530 C58 455 120 305 248 285 C375 266 394 95 548 80 C620 74 688 55 770 90Z" fill="#ccfbf1" opacity=".34"/>
  <g filter="url(#soft)">
    <rect x="78" y="88" width="1044" height="499" rx="34" fill="#ffffff" opacity=".13"/>
    <path d="M152 470 L274 302 L390 420 L500 240 L648 470Z" fill="#ffffff" opacity=".26"/>
    <circle cx="785" cy="236" r="72" fill="#ffffff" opacity=".28"/>
  </g>
  <text x="112" y="145" fill="#fff" font-family="Inter,Segoe UI,Arial,sans-serif" font-size="28" font-weight="800" letter-spacing="4">GUIDES</text>
  <text x="112" y="540" fill="#fff" font-family="Inter,Segoe UI,Arial,sans-serif" font-size="64" font-weight="900">Shadow Marsh Complete Guide</text>
  <text x="112" y="596" fill="#fff" opacity=".82" font-family="Inter,Segoe UI,Arial,sans-serif" font-size="28">Pokopia Portal</text>
</svg>